# xmcd CD database file
#
# Track frame offsets:
#	150
#	25121
#	55565
#	97194
#	111414
#	136808
#	164600
#	189504
#
# Disc length: 2837 seconds
#
# Revision: 0
# Processed by: cddbd v1.5.2PL0 Copyright (c) Steve Scherf et al.
# Submitted via: CDex 1.51
#
DISCID=680b1308
DTITLE=David Liebman - Blues All Ways
DYEAR=2007
DGENRE=Jazz
TTITLE0=Elvis The Pelvis
TTITLE1=Down Time
TTITLE2=Riz's Blues
TTITLE3=Blues Mirage
TTITLE4=Compared To Who
TTITLE5=64 Strings and A Reed
TTITLE6=Blues Tripper
TTITLE7=Bessie's Blues
EXTD=YEAR: 2007
EXTT0=
EXTT1=
EXTT2=
EXTT3=
EXTT4=
EXTT5=
EXTT6=
EXTT7=
PLAYORDER=
